<svg width="58" height="58" viewBox="0 0 58 58" fill="none" xmlns="http://www.w3.org/2000/svg">
<circle cx="41.0787" cy="28.5749" r="1.2448" transform="rotate(90 41.0787 28.5749)" fill="black"/>
<circle cx="1.24481" cy="1.24481" r="1.24481" transform="matrix(-0.708725 0.705485 -0.708725 -0.705485 39.6343 37.5215)" fill="black"/>
<circle cx="29.2542" cy="41.5833" r="1.2448" transform="rotate(180 29.2542 41.5833)" fill="black"/>
<circle cx="1.24481" cy="1.24481" r="1.24481" transform="matrix(-0.708725 -0.705485 0.708725 -0.705485 20.2698 40.1504)" fill="black"/>
<circle cx="16.183" cy="29.806" r="1.2448" transform="rotate(-90 16.183 29.806)" fill="black"/>
<circle cx="1.24481" cy="1.24481" r="1.24481" transform="matrix(0.708725 -0.705485 0.708725 0.705485 17.6289 20.877)" fill="black"/>
<circle cx="28.009" cy="16.8112" r="1.2448" fill="black"/>
<circle cx="1.24481" cy="1.24481" r="1.24481" transform="matrix(0.708725 0.705485 -0.708725 0.705485 36.9934 18.248)" fill="black"/>
<path d="M43.0456 15.5092C42.6193 15.9336 41.9281 15.9336 41.5017 15.5092C41.0754 15.0848 41.0754 14.3967 41.5017 13.9723C41.9281 13.548 42.6193 13.548 43.0456 13.9723C43.472 14.3967 43.472 15.0848 43.0456 15.5092Z" stroke="black" stroke-width="0.3112"/>
<path d="M47.2131 22.0435C46.657 22.2728 46.0188 22.0084 45.7877 21.453C45.5566 20.8976 45.8201 20.2615 46.3762 20.0322C46.9324 19.8029 47.5706 20.0673 47.8017 20.6227C48.0328 21.178 47.7693 21.8142 47.2131 22.0435Z" stroke="black" stroke-width="0.3112"/>
<circle cx="48.5474" cy="28.5729" r="1.0892" transform="rotate(90 48.5474 28.5729)" stroke="black" stroke-width="0.3112"/>
<circle cx="1.24481" cy="1.24481" r="1.08921" transform="matrix(-0.384177 0.92326 -0.924499 -0.381184 48.896 35.5352)" stroke="black" stroke-width="0.3112"/>
<path d="M42.3784 43.5438C41.952 43.1194 41.952 42.4314 42.3784 42.007C42.8047 41.5826 43.496 41.5826 43.9223 42.007C44.3486 42.4314 44.3486 43.1194 43.9223 43.5438C43.496 43.9682 42.8047 43.9682 42.3784 43.5438Z" stroke="black" stroke-width="0.3112"/>
<path d="M35.8186 47.6779C35.5875 47.1225 35.851 46.4864 36.4071 46.2571C36.9632 46.0278 37.6014 46.2921 37.8325 46.8475C38.0636 47.4029 37.8001 48.039 37.244 48.2683C36.6879 48.4976 36.0497 48.2333 35.8186 47.6779Z" stroke="black" stroke-width="0.3112"/>
<circle cx="29.2525" cy="49.0189" r="1.0892" transform="rotate(180 29.2525 49.0189)" stroke="black" stroke-width="0.3112"/>
<circle cx="1.24481" cy="1.24481" r="1.08921" transform="matrix(-0.924499 -0.381184 0.384177 -0.92326 22.2573 49.3652)" stroke="black" stroke-width="0.3112"/>
<circle cx="1.24481" cy="1.24481" r="1.08921" transform="matrix(-0.708725 -0.705485 0.708725 -0.705485 14.9871 45.4023)" stroke="black" stroke-width="0.3112"/>
<circle cx="1.24481" cy="1.24481" r="1.08921" transform="matrix(-0.384177 -0.92326 0.924499 -0.381184 9.79492 38.9727)" stroke="black" stroke-width="0.3112"/>
<circle cx="8.71355" cy="29.806" r="1.0892" transform="rotate(-90 8.71355 29.806)" stroke="black" stroke-width="0.3112"/>
<circle cx="1.24481" cy="1.24481" r="1.08921" transform="matrix(0.384177 -0.92326 0.924499 0.381184 8.36572 22.8477)" stroke="black" stroke-width="0.3112"/>
<circle cx="1.24481" cy="1.24481" r="1.08921" transform="matrix(0.708725 -0.705485 0.708725 0.705485 12.3472 15.6074)" stroke="black" stroke-width="0.3112"/>
<circle cx="1.24481" cy="1.24481" r="1.08921" transform="matrix(0.924499 -0.381184 0.384177 0.92326 18.8071 10.4375)" stroke="black" stroke-width="0.3112"/>
<circle cx="28.008" cy="9.37175" r="1.0892" stroke="black" stroke-width="0.3112"/>
<circle cx="1.24481" cy="1.24481" r="1.08921" transform="matrix(0.924499 0.381184 -0.384177 0.92326 35.0039 9.01953)" stroke="black" stroke-width="0.3112"/>
<circle cx="1.24481" cy="1.24481" r="1.24481" transform="matrix(0.867017 0.498279 -0.501715 0.865033 41.3296 3.58789)" fill="black"/>
<ellipse cx="1.24481" cy="1.24481" rx="1.24481" ry="1.24481" transform="matrix(0.708725 0.705485 -0.708724 0.705486 47.5557 7.73438)" fill="black"/>
<circle cx="1.24481" cy="1.24481" r="1.24481" transform="matrix(0.501715 0.865033 -0.867016 0.49828 52.4917 13.3359)" fill="black"/>
<ellipse cx="1.24505" cy="1.24506" rx="1.24505" ry="1.24506" transform="matrix(0.259923 0.965629 -0.966222 0.257711 55.8027 20.0332)" fill="black"/>
<circle cx="56.0167" cy="28.5846" r="1.2448" transform="rotate(90 56.0167 28.5846)" fill="black"/>
<ellipse cx="1.24505" cy="1.24506" rx="1.24505" ry="1.24506" transform="matrix(-0.259923 0.965629 -0.966222 -0.25771 56.7693 34.7812)" fill="black"/>
<ellipse cx="1.24481" cy="1.24481" rx="1.24481" ry="1.24481" transform="matrix(-0.501715 0.865033 -0.867017 -0.498279 54.3596 41.8359)" fill="black"/>
<circle cx="1.24481" cy="1.24481" r="1.24481" transform="matrix(-0.708724 0.705486 -0.708725 -0.705485 50.1968 48.0352)" fill="black"/>
<circle cx="1.24481" cy="1.24481" r="1.24481" transform="matrix(-0.867017 0.498279 -0.501715 -0.865033 44.5635 52.9453)" fill="black"/>
<ellipse cx="1.24506" cy="1.24505" rx="1.24506" ry="1.24505" transform="matrix(-0.966222 0.257711 -0.259923 -0.965629 37.844 56.2402)" fill="black"/>
<circle cx="29.253" cy="56.4525" r="1.2448" transform="rotate(180 29.253 56.4525)" fill="black"/>
<ellipse cx="1.24506" cy="1.24505" rx="1.24506" ry="1.24505" transform="matrix(-0.966222 -0.25771 0.259923 -0.965629 23.0249 57.2031)" fill="black"/>
<circle cx="1.24481" cy="1.24481" r="1.24481" transform="matrix(-0.867017 -0.498279 0.501715 -0.865033 15.9324 54.8066)" fill="black"/>
<ellipse cx="1.24481" cy="1.24481" rx="1.24481" ry="1.24481" transform="matrix(-0.708725 -0.705485 0.708725 -0.705485 9.7063 50.6641)" fill="black"/>
<ellipse cx="1.24481" cy="1.24481" rx="1.24481" ry="1.24481" transform="matrix(-0.501715 -0.865033 0.867017 -0.498279 4.77051 45.0566)" fill="black"/>
<ellipse cx="1.24505" cy="1.24506" rx="1.24505" ry="1.24506" transform="matrix(-0.259923 -0.965629 0.966222 -0.257711 1.45874 38.3711)" fill="black"/>
<circle cx="1.2448" cy="29.8157" r="1.2448" transform="rotate(-90 1.2448 29.8157)" fill="black"/>
<ellipse cx="1.24505" cy="1.24506" rx="1.24505" ry="1.24506" transform="matrix(0.259923 -0.965629 0.966222 0.25771 0.492676 23.6211)" fill="black"/>
<circle cx="1.24481" cy="1.24481" r="1.24481" transform="matrix(0.501715 -0.865033 0.867017 0.498279 2.90186 16.5547)" fill="black"/>
<circle cx="1.24481" cy="1.24481" r="1.24481" transform="matrix(0.708725 -0.705485 0.708725 0.705485 7.06689 10.3613)" fill="black"/>
<ellipse cx="1.24481" cy="1.24481" rx="1.24481" ry="1.24481" transform="matrix(0.867017 -0.498279 0.501715 0.865033 12.6978 5.44336)" fill="black"/>
<ellipse cx="1.24506" cy="1.24505" rx="1.24506" ry="1.24505" transform="matrix(0.966222 -0.25771 0.259923 0.965629 19.417 2.1543)" fill="black"/>
<circle cx="28.0087" cy="1.94206" r="1.2448" fill="black"/>
<ellipse cx="1.24506" cy="1.24505" rx="1.24506" ry="1.24505" transform="matrix(0.966222 0.25771 -0.259922 0.96563 34.2371 1.18945)" fill="black"/>
</svg>
