<svg width="131" height="268" viewBox="0 0 131 268" fill="none" xmlns="http://www.w3.org/2000/svg">
<path d="M129.832 56.0645H129.424V84.7348H129.832V56.0645Z" fill="url(#paint0_linear_1045_13295)"/>
<path d="M129.839 84.7357V56.0723L130.046 56.3211C129.943 58.3739 129.95 82.441 130.046 84.4869L129.839 84.7357Z" fill="url(#paint1_linear_1045_13295)"/>
<path d="M0.615074 56.0645H0.207275L0.207275 75.3347H0.615074L0.615074 56.0645Z" fill="url(#paint2_linear_1045_13295)"/>
<path d="M0.207355 75.3356L0.207355 56.0723L0 56.3211C0.103678 58.3739 0.0967659 73.0409 0 75.0868L0.207355 75.3356Z" fill="url(#paint3_linear_1045_13295)"/>
<path d="M1.05759 56.0723H0.615234L0.615234 75.3425H1.05759L1.05759 56.0723Z" fill="url(#paint4_linear_1045_13295)"/>
<path d="M0.615074 80.2285H0.207275L0.207275 99.4987H0.615074L0.615074 80.2285Z" fill="url(#paint5_linear_1045_13295)"/>
<path d="M0.207355 99.4996L0.207355 80.2363L0 80.4852C0.103678 82.538 0.0967659 97.2049 0 99.2508L0.207355 99.4996Z" fill="url(#paint6_linear_1045_13295)"/>
<path d="M1.05759 80.2285H0.615234L0.615234 99.4987H1.05759L1.05759 80.2285Z" fill="url(#paint7_linear_1045_13295)"/>
<path d="M0.615074 33.252H0.207275L0.207275 43.7096H0.615074L0.615074 33.252Z" fill="url(#paint8_linear_1045_13295)"/>
<path d="M0.207355 43.7105L0.207355 33.2598L0 33.5086C0.103678 35.5614 0.0967659 41.4157 0 43.4617L0.207355 43.7105Z" fill="url(#paint9_linear_1045_13295)"/>
<path d="M1.05759 33.2598H0.615234L0.615234 43.7174H1.05759L1.05759 33.2598Z" fill="url(#paint10_linear_1045_13295)"/>
<g clip-path="url(#clip0_1045_13295)">
<path d="M111.267 0L19.2222 0C9.19311 0 1.05786 8.13525 1.05786 18.1643L1.05786 249.836C1.05786 259.865 9.19311 268 19.2222 268H111.267C121.296 268 129.432 259.865 129.432 249.836L129.432 18.1643C129.432 8.13525 121.296 0 111.267 0ZM127.669 249.2C127.669 258.607 120.038 266.237 110.631 266.237H19.8581C10.4511 266.237 2.82038 258.607 2.82038 249.2L2.82038 18.8002C2.82038 9.3932 10.4511 1.76252 19.8581 1.76252L110.624 1.76252C120.032 1.76252 127.662 9.3932 127.662 18.8002L127.662 249.2H127.669Z" fill="black"/>
<path d="M110.624 1.76367L19.858 1.76367C10.451 1.76367 2.82031 9.39435 2.82031 18.8014L2.82031 249.201C2.82031 258.608 10.451 266.239 19.858 266.239H110.624C120.031 266.239 127.662 258.608 127.662 249.201L127.662 18.8014C127.662 9.39435 120.031 1.76367 110.624 1.76367ZM126.777 248.689C126.777 257.896 119.313 265.361 110.106 265.361H20.3695C11.1629 265.361 3.69812 257.896 3.69812 248.689L3.69812 19.3129C3.69812 10.1063 11.1629 2.64839 20.3695 2.64839L110.113 2.64839C119.32 2.64839 126.784 10.1132 126.784 19.3198L126.784 248.689H126.777Z" fill="#1A1A1A"/>
<path d="M110.631 266.332H19.858C10.4164 266.332 2.73731 258.653 2.73731 249.205L2.73731 18.8053C2.7304 9.36371 10.4164 1.67773 19.858 1.67773L110.631 1.67773C120.073 1.67773 127.752 9.3568 127.752 18.7984L127.752 249.205C127.752 258.646 120.073 266.332 110.631 266.332ZM19.858 1.85053C10.5131 1.85053 2.90319 9.46048 2.90319 18.8053L2.90319 249.205C2.90319 258.55 10.5062 266.16 19.851 266.16H110.631C119.976 266.16 127.579 258.557 127.579 249.205L127.579 18.8053C127.579 9.46048 119.976 1.85744 110.631 1.85744L19.858 1.85744V1.85053ZM110.113 265.448H20.3694C11.1283 265.448 3.61511 257.928 3.61511 248.693L3.61511 19.3168C3.61511 10.0825 11.1352 2.56245 20.3694 2.56245L110.113 2.56245C119.354 2.56245 126.867 10.0825 126.867 19.3168L126.867 248.693C126.867 257.934 119.347 265.448 110.113 265.448ZM20.3694 2.73525C11.2251 2.73525 3.78791 10.1724 3.78791 19.3168L3.78791 248.693C3.78791 257.838 11.2251 265.275 20.3694 265.275H110.113C119.257 265.275 126.694 257.838 126.694 248.693L126.694 19.3168C126.694 10.1724 119.257 2.73525 110.113 2.73525L20.3694 2.73525Z" fill="black"/>
<path d="M76.5832 14.7165L53.4631 14.7165C50.9448 14.7165 48.9018 12.6738 48.9018 10.1484C48.9018 7.63 50.9447 5.58712 53.4631 5.58712L76.5832 5.58712C79.1016 5.58712 81.1445 7.63 81.1445 10.1484C81.1445 12.667 79.1013 14.7165 76.5832 14.7165Z" stroke="#212121" stroke-width="0.291432"/>
<path d="M77.1979 10.1554C77.1979 11.2125 76.3409 12.0694 75.2838 12.0694C74.2268 12.0694 73.3698 11.2125 73.3698 10.1554C73.3698 9.09835 74.2268 8.24142 75.2838 8.24142C76.3409 8.24142 77.1979 9.09835 77.1979 10.1554Z" stroke="#212121" stroke-width="0.291432"/>
<path d="M76.313 10.1555C76.313 10.7239 75.8521 11.1848 75.2837 11.1848C74.7152 11.1848 74.2544 10.7239 74.2544 10.1555C74.2544 9.58702 74.7152 9.12618 75.2837 9.12618C75.8521 9.12618 76.313 9.58702 76.313 10.1555Z" stroke="#212121" stroke-width="0.291432"/>
<path d="M65.7646 66.4792C61.7547 56.0464 41.9172 50.8945 45.1908 71.6671C45.7276 75.0731 45.7816 80.938 45.1908 88.0767C44.6496 94.6162 34.0556 98.1944 30.8035 106.644C25.7034 119.896 44.7724 129.132 41.7379 136.098C37.7633 145.222 25.5936 149.181 18.8621 154.173C12.5252 158.872 8.48876 166.412 6.93892 174.164C4.21992 187.764 9.15424 202.016 22.7467 202.725C29.551 203.08 38.525 200.041 49.7947 191.827C54.8334 188.155 59.2765 185.129 63.2253 182.682C73.3887 176.383 70.6562 191.281 82.7415 191.827C89.6277 192.138 96.8199 179.277 102.264 186.137C106.136 191.015 110.578 196.934 116.923 203.02C128.065 213.706 141.995 215.28 143.965 200.028C144.895 192.828 143.16 181.879 137.209 166.369C133.4 156.444 142.874 156.794 143.965 144.075C145.057 131.356 136.131 125.49 142.592 120.226L142.722 120.121C147.647 116.109 152.9 111.83 155.768 103.611C158.239 96.5318 158.003 89.5201 155.768 84.1323C153.376 78.3662 148.695 74.4601 142.592 74.3215C136.469 74.1825 128.915 77.8365 120.807 87.2106C115.462 93.391 111.841 79.01 102.264 80.4801C92.6873 81.9502 91.3562 95.826 85.619 91.8015C75.6529 84.8105 70.4608 78.6978 65.7646 66.4792Z" stroke="black" stroke-width="0.591657"/>
<path d="M85.1087 123.387C84.4985 121.786 81.6545 122.206 81.5106 123.942C81.3467 125.918 82.3457 128.494 82.2302 130.475C82.0073 134.3 80.656 135.388 77.9655 137.404C77.0011 138.126 76.3868 139.283 76.1509 140.473C75.7371 142.561 76.4881 144.749 78.5566 144.858C79.5921 144.912 80.9579 144.446 82.6729 143.185C83.4398 142.621 84.1159 142.157 84.7169 141.781C87.3329 140.015 89.7677 141.399 90.6581 142.311C91.2472 143.06 91.9233 143.969 92.8889 144.903C94.5845 146.544 97.1522 146.329 97.0044 144.444C96.7954 141.781 92.249 131.841 97.0044 130.108C99.2133 129.303 99.1407 127.479 98.8006 126.652C98.4366 125.767 97.7241 125.167 96.7954 125.146C95.8636 125.125 94.3198 126.652 93.48 127.125C90.3798 128.869 87.6135 129.771 85.1087 123.387Z" stroke="black" stroke-width="0.591657"/>
<path d="M48.5075 76.2128C45.6022 57.3025 63.7304 62.0164 67.4066 71.5806C71.9074 83.2734 76.8832 88.7534 86.2331 94.9565C91.4915 98.5968 92.7568 85.9272 101.526 84.5501C110.295 83.1731 113.645 96.2232 118.552 90.6011C126.013 82.0743 132.951 78.8039 138.556 79.0103C144.124 79.1737 148.393 82.7873 150.549 88.093C152.563 93.0545 152.73 99.4931 150.381 105.97C147.315 113.67 142.888 118.462 138.392 122.38C132.52 127.255 140.586 132.639 139.517 144.218C138.448 155.798 129.731 155.447 133.12 164.404C138.447 178.43 139.964 188.31 139.064 194.793C137.231 208.628 124.481 207.145 114.248 197.401C108.38 191.843 104.223 186.466 100.581 182.107C95.5728 175.9 88.9673 187.643 82.632 187.411C71.5579 186.971 73.974 173.456 64.6643 179.21C61.009 181.461 56.9118 184.223 52.2801 187.562C41.8379 195.025 33.6044 197.592 27.451 197.081C15.0942 196.382 10.624 183.362 13.1255 170.941C14.5633 163.841 18.2718 156.938 24.0815 152.631C30.451 147.907 41.6469 144.207 45.2835 135.561C48.0498 129.134 30.6793 120.627 35.3003 108.468C38.2397 100.678 47.8599 97.3194 48.3598 91.2805C48.9039 84.7072 48.9227 79.3226 48.5075 76.2128Z" stroke="black" stroke-width="0.591657"/>
<path d="M51.974 80.9484C49.4412 63.9625 65.8336 68.223 69.1708 76.8871C73.4697 88.0144 78.222 92.844 86.942 98.2393C91.7138 101.483 92.9116 90.0616 100.86 88.7822C108.809 87.5028 111.884 99.1793 116.344 94.1339C123.148 86.4824 129.46 83.6062 134.538 83.8791C139.563 84.0667 143.413 87.3759 145.331 92.2036C147.121 96.7224 147.218 102.567 144.994 108.421C141.761 115.503 138.234 120.789 134.211 124.569C128.936 129.038 136.131 133.923 135.086 144.325C134.041 154.727 126.094 154.377 129.057 162.335C133.752 174.833 135.049 183.611 134.181 189.356C132.487 201.729 120.935 200.341 111.626 191.571C106.243 186.558 102.378 181.742 98.9717 177.917C94.4066 172.382 88.3974 182.969 82.6222 182.816C72.5755 182.484 74.6718 170.395 66.2292 175.587C62.8729 177.633 59.1275 180.123 54.9096 183.118C45.3101 189.805 37.8291 191.893 32.3356 191.228C21.2327 190.541 17.233 178.797 19.5134 167.595C20.8371 161.17 24.2123 154.928 29.4863 151.025C35.4846 146.586 45.6902 143.157 48.9836 135.017C51.4776 129.15 35.831 121.402 39.966 110.375C42.5885 103.27 51.2209 100.143 51.6787 94.6246C52.1753 88.6385 52.2669 83.7519 51.974 80.9484Z" stroke="black" stroke-width="0.591657"/>
<path d="M55.2892 85.4905C53.1251 70.3669 67.8071 74.1893 70.8104 81.9848C74.9141 92.586 79.4503 96.7831 87.5541 101.39C91.8467 104.25 92.9788 94.0348 100.119 92.8484C107.259 91.6621 110.064 102.008 114.084 97.5207C120.242 90.7164 125.938 88.2239 130.496 88.5641C134.986 88.7765 138.424 91.7932 140.107 96.1604C141.675 100.253 141.702 105.524 139.601 110.776C136.195 117.267 133.562 123.063 130.006 126.719C125.32 130.798 131.655 135.201 130.632 144.464C129.609 153.727 122.419 153.376 124.962 160.365C129.032 171.38 130.111 179.089 129.273 184.117C127.717 195.074 117.345 193.775 108.946 185.947C104.04 181.462 100.46 177.188 97.2835 173.883C93.1546 169 87.7325 178.469 82.5085 178.396C73.4736 178.169 75.2532 167.463 67.6649 172.111C64.6022 173.961 61.2028 176.187 57.3921 178.848C48.6206 184.785 41.8805 186.401 37.0384 185.579C27.1723 184.904 23.637 174.391 25.6999 164.369C26.9114 158.594 29.9586 152.99 34.7049 149.479C40.3414 145.308 49.5726 142.138 52.5278 134.476C54.7534 129.148 40.8066 122.13 44.462 112.195C46.7716 105.749 54.4294 102.842 54.8459 97.8246C55.2957 92.404 55.4603 87.9978 55.2892 85.4905Z" stroke="black" stroke-width="0.591657"/>
<path d="M58.7531 90.0362C56.9616 76.7755 69.9069 80.1599 72.571 87.0866C76.4723 97.1625 80.7844 100.727 88.2577 104.546C92.0636 107.021 93.1279 98.0122 99.4468 96.9188C105.766 95.8254 108.296 104.84 111.869 100.911C117.37 94.9545 122.439 92.8458 126.47 93.2535C130.417 93.4908 133.436 96.215 134.88 100.122C136.225 103.788 136.181 108.486 134.206 113.135C130.634 119.035 128.9 125.344 125.816 128.876C121.729 132.565 127.193 136.486 126.194 144.609C125.195 152.732 118.775 152.381 120.892 158.4C124.33 167.932 125.189 174.571 124.382 178.882C122.966 188.421 113.794 187.213 106.318 180.327C101.898 176.369 98.6099 172.638 95.6691 169.852C91.9838 165.623 87.1584 173.974 82.4949 173.979C74.4879 173.859 75.9476 164.536 69.227 168.639C66.4634 170.293 63.416 172.256 60.0194 174.582C52.0912 179.769 46.1041 180.913 41.922 179.935C33.3102 179.269 30.2456 169.989 32.0873 161.146C33.1846 156.023 35.8983 151.056 40.1086 147.937C45.3733 144.034 53.6137 141.122 56.2255 133.938C58.1787 129.148 45.9565 122.861 49.1258 114.019C51.1183 108.232 57.788 105.545 58.1623 101.028C58.5647 96.1731 58.802 92.2472 58.7531 90.0362Z" stroke="black" stroke-width="0.591657"/>
<path d="M62.216 94.7963C60.7969 83.4282 72.0053 86.367 74.3301 92.4094C78.0284 101.937 82.1158 104.86 88.9577 107.883C92.2766 109.968 93.273 102.186 98.7707 101.188C104.268 100.19 106.523 107.853 109.65 104.492C114.492 99.396 118.934 97.6758 122.438 98.15C125.843 98.4116 128.442 100.837 129.649 104.275C130.769 107.506 130.655 111.621 128.806 115.657C125.069 120.953 124.233 127.759 121.622 131.159C118.133 134.45 122.725 137.881 121.75 144.846C120.776 151.811 115.126 151.46 116.818 156.496C119.624 164.523 120.263 170.077 119.489 173.661C118.212 181.762 110.239 180.647 103.689 174.719C99.7539 171.297 96.7581 168.117 94.0532 165.857C90.8117 162.29 86.5831 169.504 82.4803 169.588C75.5014 169.575 76.6414 161.655 70.7887 165.206C68.3245 166.659 65.6293 168.354 62.6468 170.341C55.5626 174.766 50.3286 175.436 46.8066 174.303C39.4491 173.649 36.8553 165.623 38.4757 157.978C39.4586 153.518 41.8387 149.2 45.5128 146.479C50.4051 142.853 57.6542 140.207 59.9225 133.516C61.6033 129.276 51.1059 123.733 53.7891 116.003C55.4646 110.889 61.1461 108.428 61.4783 104.422C61.8331 100.143 62.143 96.7062 62.216 94.7963Z" stroke="black" stroke-width="0.591657"/>
<path d="M65.5287 99.3421C64.479 89.8378 73.9738 92.3383 75.9642 97.5117C79.4672 106.515 83.3383 108.805 89.5633 111.038C92.4021 112.739 93.3327 106.164 98.0205 105.259C102.708 104.354 104.693 110.685 107.378 107.882C111.573 103.634 115.398 102.298 118.382 102.84C121.251 103.127 123.436 105.26 124.407 108.237C125.306 111.042 125.122 114.583 123.395 118.017C119.484 122.721 119.545 130.042 117.402 133.319C114.503 136.22 118.233 139.169 117.281 144.994C116.328 150.818 111.438 150.467 112.707 154.533C114.888 161.075 115.308 165.558 114.564 168.425C113.424 175.108 106.634 174.082 100.995 169.097C97.5377 166.203 94.8279 163.565 92.3532 161.826C89.5487 158.912 85.9082 165.007 82.3575 165.171C76.3923 165.264 77.215 158.728 72.218 161.735C70.0479 162.991 67.6993 164.422 65.1248 166.076C58.8698 169.749 54.3781 169.946 51.5088 168.656C45.3903 168.012 43.2618 161.219 44.6643 154.754C45.5349 150.946 47.5863 147.266 50.7319 144.936C55.262 141.578 61.535 139.191 63.4645 132.977C64.8764 129.276 56.0819 124.463 58.2846 117.826C59.6466 113.371 64.3516 111.13 64.6425 107.625C64.9505 103.912 65.3335 100.956 65.5287 99.3421Z" stroke="black" stroke-width="0.591657"/>
<path d="M68.987 103.887C68.3094 96.2486 76.0655 98.3106 77.7162 102.614C81.0144 111.096 84.6589 112.751 90.2501 114.194C92.6013 115.51 93.4637 110.142 97.3292 109.33C101.195 108.518 102.903 113.515 105.142 111.272C108.677 107.873 111.875 106.922 114.331 107.532C116.656 107.844 118.422 109.684 119.154 112.2C119.829 114.579 119.576 117.546 117.976 120.378C113.902 124.491 114.859 132.33 113.189 135.484C110.889 137.995 113.747 140.462 112.819 145.146C111.892 149.829 107.773 149.477 108.617 152.571C110.166 157.627 110.367 161.039 109.654 163.187C108.656 168.451 103.066 167.515 98.3528 163.474C95.3824 161.107 92.9658 159.013 90.728 157.795C88.368 155.535 85.3252 160.511 82.336 160.753C77.4003 160.953 77.9035 155.803 73.7755 158.264C71.9053 159.324 69.9096 160.491 67.7499 161.81C62.3407 164.732 58.6031 164.455 56.394 163.007C51.5307 162.373 49.8731 156.814 51.0539 151.53C51.8099 148.374 53.5273 145.332 56.136 143.394C60.2916 140.303 65.5719 138.174 67.1576 132.436C68.2967 129.274 61.2284 125.192 62.9448 119.649C63.9897 115.853 67.706 113.832 67.9547 110.827C68.215 107.68 68.6702 105.204 68.987 103.887Z" stroke="black" stroke-width="0.591657"/>
<path d="M72.3487 108.427C72.0403 102.656 78.0994 104.279 79.4195 107.712C82.5321 115.674 85.9713 116.693 90.9606 117.344C92.8371 118.274 93.6362 114.116 96.7003 113.397C99.7645 112.677 101.207 116.339 103.01 114.656C105.906 112.107 108.493 111.541 110.435 112.22C112.229 112.557 113.586 114.105 114.083 116.16C114.537 118.112 114.212 120.505 112.73 122.733C108.469 126.255 110.33 134.619 109.124 137.651C107.41 139.773 109.411 141.758 108.503 145.298C107.595 148.839 104.225 148.485 104.648 150.607C105.573 154.175 105.555 156.513 104.87 157.94C104.006 161.783 99.5871 160.937 95.774 157.84C93.2738 156.002 91.1367 154.452 89.1229 153.756C87.1944 152.151 84.7328 156.006 82.2887 156.329C78.3556 156.636 78.5415 152.872 75.26 154.789L75.1688 154.839C73.6158 155.687 71.9917 156.573 70.2687 157.539C65.6752 159.708 62.6714 158.956 61.111 157.348C57.4771 156.724 56.2817 152.4 57.2473 148.297C57.893 145.794 59.2856 143.392 61.3717 141.845C65.1769 139.021 69.4934 137.15 70.7438 131.886C71.6164 129.264 66.2364 125.913 67.4755 121.464C68.2088 118.328 70.9559 116.526 71.1638 114.022C71.378 111.441 71.9081 109.447 72.3487 108.427Z" stroke="black" stroke-width="0.591657"/>
<path d="M75.7981 113.189C75.8615 109.311 80.1766 110.488 81.1556 113.036C84.0595 120.442 87.2674 120.821 91.617 120.677C93.0042 121.217 93.7339 118.287 95.973 117.664C98.212 117.04 99.377 119.351 100.731 118.235C102.965 116.547 104.922 116.369 106.334 117.113C107.583 117.474 108.519 118.723 108.778 120.308C109.008 121.824 108.614 123.633 107.261 125.248C102.844 128.163 105.596 137.012 104.864 139.91C103.749 141.633 104.878 143.126 103.996 145.508C103.114 147.89 100.518 147.537 100.517 148.677C100.81 150.74 100.572 151.994 99.9211 152.696C99.1984 155.1 95.9843 154.348 93.1009 152.209C91.0901 150.908 89.2488 149.909 87.4743 149.738C85.9922 148.795 84.1307 151.512 82.2507 151.914C79.3507 152.326 79.2175 149.966 76.808 151.329C75.529 151.992 74.2297 152.626 72.8895 153.272C69.1469 154.678 66.9001 153.454 66.0009 151.694C63.625 151.082 62.9013 148.013 63.6444 145.11C64.1747 143.271 65.2319 141.518 66.7791 140.37C70.2051 137.825 73.5245 136.221 74.4299 131.456C75.0291 129.384 71.3797 126.779 72.1316 123.444C72.5474 120.982 74.3036 119.407 74.4691 117.415C74.6355 115.412 75.2368 113.907 75.7981 113.189Z" stroke="black" stroke-width="0.591657"/>
<path d="M79.2992 117.746C79.7328 115.748 82.3175 116.482 82.9585 118.153C85.6581 125.019 88.64 124.762 92.3584 123.825C93.2603 123.978 93.922 122.265 95.3427 121.736C96.7634 121.207 97.6537 122.175 98.5619 121.623C100.141 120.79 101.473 120.999 102.359 121.809C103.068 122.195 103.586 123.148 103.608 124.267C103.615 125.352 103.152 126.582 101.926 127.588C97.3471 129.905 100.99 139.257 100.729 142.025C100.21 143.354 100.471 144.36 99.6139 145.593C98.7566 146.825 96.9292 146.472 96.5055 146.634C96.1696 147.202 95.7135 147.378 95.0944 147.358C94.5115 148.333 92.4924 147.672 90.5306 146.485C89.0045 145.716 87.4552 145.264 85.9166 145.617C84.8769 145.332 83.6103 146.92 82.2892 147.4C80.4138 147.919 79.9628 146.954 78.4182 147.767C77.4378 148.231 76.4897 148.599 75.5623 148.908C72.6618 149.557 71.1656 147.86 70.9234 145.946C69.7964 145.345 69.5413 143.52 70.0637 141.807C70.48 140.626 71.2046 139.517 72.2175 138.764C75.2705 136.493 77.6016 135.151 78.1648 130.873C78.4927 129.346 76.5611 127.479 76.8291 125.248C76.9294 123.453 77.7017 122.102 77.8252 120.616C77.9442 119.185 78.6172 118.166 79.2992 117.746Z" stroke="black" stroke-width="0.591657"/>
</g>
<defs>
<linearGradient id="paint0_linear_1045_13295" x1="129.639" y1="56.0645" x2="129.639" y2="84.7348" gradientUnits="userSpaceOnUse">
<stop stop-color="#3B3B3B"/>
<stop offset="0.02" stop-color="#E6E6E6"/>
<stop offset="0.04" stop-color="#333333"/>
<stop offset="0.08"/>
<stop offset="0.11" stop-color="#666666"/>
<stop offset="0.9" stop-color="#313131"/>
<stop offset="0.94"/>
<stop offset="0.96" stop-color="#333333"/>
<stop offset="0.98" stop-color="#CCCCCC"/>
<stop offset="1" stop-color="#2C2C2C"/>
</linearGradient>
<linearGradient id="paint1_linear_1045_13295" x1="129.943" y1="56.0723" x2="129.943" y2="84.7426" gradientUnits="userSpaceOnUse">
<stop stop-color="#A0A0A0"/>
<stop offset="0.06" stop-color="#333333"/>
<stop offset="0.19" stop-color="#8A8A8A"/>
<stop offset="0.81" stop-color="#8A8A8A"/>
<stop offset="0.92" stop-color="#333333"/>
<stop offset="1" stop-color="#A0A0A0"/>
</linearGradient>
<linearGradient id="paint2_linear_1045_13295" x1="0.407711" y1="393.356" x2="0.407711" y2="75.3347" gradientUnits="userSpaceOnUse">
<stop stop-color="#3B3B3B"/>
<stop offset="0.02" stop-color="#E6E6E6"/>
<stop offset="0.04" stop-color="#333333"/>
<stop offset="0.08"/>
<stop offset="0.11" stop-color="#666666"/>
<stop offset="0.9" stop-color="#313131"/>
<stop offset="0.94"/>
<stop offset="0.96" stop-color="#333333"/>
<stop offset="0.98" stop-color="#CCCCCC"/>
<stop offset="1" stop-color="#2C2C2C"/>
</linearGradient>
<linearGradient id="paint3_linear_1045_13295" x1="0.0967659" y1="393.357" x2="0.0967659" y2="75.3425" gradientUnits="userSpaceOnUse">
<stop stop-color="#A0A0A0"/>
<stop offset="0.06" stop-color="#333333"/>
<stop offset="0.19" stop-color="#8A8A8A"/>
<stop offset="0.81" stop-color="#8A8A8A"/>
<stop offset="0.92" stop-color="#333333"/>
<stop offset="1" stop-color="#A0A0A0"/>
</linearGradient>
<linearGradient id="paint4_linear_1045_13295" x1="0.836414" y1="75.3425" x2="0.836414" y2="56.0723" gradientUnits="userSpaceOnUse">
<stop stop-color="#353540"/>
<stop offset="0.05"/>
<stop offset="0.52" stop-color="#333333"/>
<stop offset="0.96"/>
<stop offset="1" stop-color="#262C31"/>
</linearGradient>
<linearGradient id="paint5_linear_1045_13295" x1="0.407719" y1="80.2285" x2="0.407719" y2="99.4987" gradientUnits="userSpaceOnUse">
<stop stop-color="#3B3B3B"/>
<stop offset="0.02" stop-color="#E6E6E6"/>
<stop offset="0.04" stop-color="#333333"/>
<stop offset="0.08"/>
<stop offset="0.11" stop-color="#666666"/>
<stop offset="0.9" stop-color="#313131"/>
<stop offset="0.94"/>
<stop offset="0.96" stop-color="#333333"/>
<stop offset="0.98" stop-color="#CCCCCC"/>
<stop offset="1" stop-color="#2C2C2C"/>
</linearGradient>
<linearGradient id="paint6_linear_1045_13295" x1="0.096766" y1="80.2363" x2="0.096766" y2="99.4996" gradientUnits="userSpaceOnUse">
<stop stop-color="#A0A0A0"/>
<stop offset="0.06" stop-color="#333333"/>
<stop offset="0.19" stop-color="#8A8A8A"/>
<stop offset="0.81" stop-color="#8A8A8A"/>
<stop offset="0.92" stop-color="#333333"/>
<stop offset="1" stop-color="#A0A0A0"/>
</linearGradient>
<linearGradient id="paint7_linear_1045_13295" x1="7.99796e-05" y1="99.5057" x2="0.691265" y2="80.2285" gradientUnits="userSpaceOnUse">
<stop stop-color="#353540"/>
<stop offset="0.05"/>
<stop offset="0.52" stop-color="#333333"/>
<stop offset="0.96"/>
<stop offset="1" stop-color="#262C31"/>
</linearGradient>
<linearGradient id="paint8_linear_1045_13295" x1="0.407719" y1="33.2589" x2="0.407719" y2="43.7165" gradientUnits="userSpaceOnUse">
<stop stop-color="#3B3B3B"/>
<stop offset="0.02" stop-color="#E6E6E6"/>
<stop offset="0.04" stop-color="#333333"/>
<stop offset="0.08"/>
<stop offset="0.11" stop-color="#666666"/>
<stop offset="0.9" stop-color="#313131"/>
<stop offset="0.94"/>
<stop offset="0.96" stop-color="#333333"/>
<stop offset="0.98" stop-color="#CCCCCC"/>
<stop offset="1" stop-color="#2C2C2C"/>
</linearGradient>
<linearGradient id="paint9_linear_1045_13295" x1="0.0967659" y1="33.2598" x2="0.0967659" y2="43.7174" gradientUnits="userSpaceOnUse">
<stop stop-color="#A0A0A0"/>
<stop offset="0.06" stop-color="#333333"/>
<stop offset="0.19" stop-color="#8A8A8A"/>
<stop offset="0.81" stop-color="#8A8A8A"/>
<stop offset="0.92" stop-color="#333333"/>
<stop offset="1" stop-color="#A0A0A0"/>
</linearGradient>
<linearGradient id="paint10_linear_1045_13295" x1="7.98595e-05" y1="43.7174" x2="0.836414" y2="33.2598" gradientUnits="userSpaceOnUse">
<stop stop-color="#353540"/>
<stop offset="0.05"/>
<stop offset="0.52" stop-color="#333333"/>
<stop offset="0.96"/>
<stop offset="1" stop-color="#262C31"/>
</linearGradient>
<clipPath id="clip0_1045_13295">
<rect width="128.374" height="268" fill="white" transform="translate(1.05786)"/>
</clipPath>
</defs>
</svg>
