<svg width="58" height="58" viewBox="0 0 58 58" fill="none" xmlns="http://www.w3.org/2000/svg">
<g clip-path="url(#clip0_1046_15019)">
<path d="M36.0398 1.10156L29.2395 26.4807" stroke="black" stroke-width="0.571184"/>
</g>
<g clip-path="url(#clip1_1046_15019)">
<path d="M39.5852 2.3125L29.5304 26.5869" stroke="black" stroke-width="0.571184"/>
</g>
<g clip-path="url(#clip2_1046_15019)">
<path d="M42.9438 3.9668L29.8066 26.7211" stroke="black" stroke-width="0.571184"/>
</g>
<g clip-path="url(#clip3_1046_15019)">
<path d="M46.0581 6.05273L30.0632 26.8976" stroke="black" stroke-width="0.571184"/>
</g>
<g clip-path="url(#clip4_1046_15019)">
<path d="M48.8752 8.52344L30.2964 27.1023" stroke="black" stroke-width="0.571184"/>
</g>
<g clip-path="url(#clip5_1046_15019)">
<path d="M51.344 11.332L30.4991 27.3269" stroke="black" stroke-width="0.571184"/>
</g>
<g clip-path="url(#clip6_1046_15019)">
<path d="M53.425 14.4434L30.6707 27.5806" stroke="black" stroke-width="0.571184"/>
</g>
<g clip-path="url(#clip7_1046_15019)">
<path d="M55.0806 17.7988L30.8061 27.8536" stroke="black" stroke-width="0.571184"/>
</g>
<g clip-path="url(#clip8_1046_15019)">
<path d="M56.2869 21.3438L30.9077 28.1441" stroke="black" stroke-width="0.571184"/>
</g>
<g clip-path="url(#clip9_1046_15019)">
<path d="M57.0166 25.0273L30.9669 28.4568" stroke="black" stroke-width="0.571184"/>
</g>
<g clip-path="url(#clip10_1046_15019)">
<path d="M57.2615 28.7637L30.987 28.7637" stroke="black" stroke-width="0.571184"/>
</g>
<g clip-path="url(#clip11_1046_15019)">
<path d="M57.0166 32.5039L30.9669 29.0744" stroke="black" stroke-width="0.571184"/>
</g>
<g clip-path="url(#clip12_1046_15019)">
<path d="M56.2876 36.1699L30.9084 29.3696" stroke="black" stroke-width="0.571184"/>
</g>
<g clip-path="url(#clip13_1046_15019)">
<path d="M55.084 39.7168L30.8096 29.662" stroke="black" stroke-width="0.571184"/>
</g>
<g clip-path="url(#clip14_1046_15019)">
<path d="M53.4268 43.0762L30.6724 29.9389" stroke="black" stroke-width="0.571184"/>
</g>
<g clip-path="url(#clip15_1046_15019)">
<path d="M51.3474 46.1875L30.5025 30.1926" stroke="black" stroke-width="0.571184"/>
</g>
<g clip-path="url(#clip16_1046_15019)">
<path d="M48.8782 49.0098L30.2993 30.4309" stroke="black" stroke-width="0.571184"/>
</g>
<g clip-path="url(#clip17_1046_15019)">
<path d="M46.0623 51.4727L30.0674 30.6277" stroke="black" stroke-width="0.571184"/>
</g>
<g clip-path="url(#clip18_1046_15019)">
<path d="M42.9478 53.5547L29.8105 30.8003" stroke="black" stroke-width="0.571184"/>
</g>
<g clip-path="url(#clip19_1046_15019)">
<path d="M39.5898 55.2188L29.5351 30.9443" stroke="black" stroke-width="0.571184"/>
</g>
<g clip-path="url(#clip20_1046_15019)">
<path d="M36.0439 56.4102L29.2436 31.031" stroke="black" stroke-width="0.571184"/>
</g>
<g clip-path="url(#clip21_1046_15019)">
<path d="M32.3713 57.1504L28.9418 31.1007" stroke="black" stroke-width="0.571184"/>
</g>
<g clip-path="url(#clip22_1046_15019)">
<path d="M28.6326 57.3926L28.6326 31.1181" stroke="black" stroke-width="0.571184"/>
</g>
<g clip-path="url(#clip23_1046_15019)">
<path d="M24.8975 57.1523L28.327 31.1027" stroke="black" stroke-width="0.571184"/>
</g>
<g clip-path="url(#clip24_1046_15019)">
<path d="M21.2234 56.4141L28.0237 31.0349" stroke="black" stroke-width="0.571184"/>
</g>
<g clip-path="url(#clip25_1046_15019)">
<path d="M17.6772 55.2148L27.732 30.9404" stroke="black" stroke-width="0.571184"/>
</g>
<g clip-path="url(#clip26_1046_15019)">
<path d="M14.3191 53.5527L27.4563 30.7984" stroke="black" stroke-width="0.571184"/>
</g>
<g clip-path="url(#clip27_1046_15019)">
<path d="M11.2061 51.4785L27.2009 30.6336" stroke="black" stroke-width="0.571184"/>
</g>
<g clip-path="url(#clip28_1046_15019)">
<path d="M8.39038 49.0098L26.9692 30.4309" stroke="black" stroke-width="0.571184"/>
</g>
<g clip-path="url(#clip29_1046_15019)">
<path d="M5.91895 46.1914L26.7639 30.1965" stroke="black" stroke-width="0.571184"/>
</g>
<g clip-path="url(#clip30_1046_15019)">
<path d="M3.83716 43.0859L26.5915 29.9487" stroke="black" stroke-width="0.571184"/>
</g>
<g clip-path="url(#clip31_1046_15019)">
<path d="M2.18115 39.7188L26.4556 29.664" stroke="black" stroke-width="0.571184"/>
</g>
<g clip-path="url(#clip32_1046_15019)">
<path d="M0.978516 36.166L26.3577 29.3657" stroke="black" stroke-width="0.571184"/>
</g>
<g clip-path="url(#clip33_1046_15019)">
<path d="M0.246094 32.5L26.2958 29.0705" stroke="black" stroke-width="0.571184"/>
</g>
<g clip-path="url(#clip34_1046_15019)">
<path d="M0.0012207 28.7637L26.2757 28.7637" stroke="black" stroke-width="0.571184"/>
</g>
<g clip-path="url(#clip35_1046_15019)">
<path d="M0.246338 25.0215L26.296 28.451" stroke="black" stroke-width="0.571184"/>
</g>
<g clip-path="url(#clip36_1046_15019)">
<path d="M0.977051 21.3691L26.3562 28.1695" stroke="black" stroke-width="0.571184"/>
</g>
<g clip-path="url(#clip37_1046_15019)">
<path d="M2.18042 17.7949L26.4548 27.8497" stroke="black" stroke-width="0.571184"/>
</g>
<g clip-path="url(#clip38_1046_15019)">
<path d="M3.83618 14.4434L26.5905 27.5806" stroke="black" stroke-width="0.571184"/>
</g>
<g clip-path="url(#clip39_1046_15019)">
<path d="M5.91626 11.332L26.7612 27.3269" stroke="black" stroke-width="0.571184"/>
</g>
<g clip-path="url(#clip40_1046_15019)">
<path d="M8.38428 8.51953L26.9631 27.0984" stroke="black" stroke-width="0.571184"/>
</g>
<g clip-path="url(#clip41_1046_15019)">
<path d="M11.2012 6.05273L27.196 26.8977" stroke="black" stroke-width="0.571184"/>
</g>
<g clip-path="url(#clip42_1046_15019)">
<path d="M14.3152 3.96875L27.4524 26.7231" stroke="black" stroke-width="0.571184"/>
</g>
<g clip-path="url(#clip43_1046_15019)">
<path d="M17.6731 2.30859L27.7279 26.583" stroke="black" stroke-width="0.571184"/>
</g>
<g clip-path="url(#clip44_1046_15019)">
<path d="M21.2192 1.10156L28.0196 26.4807" stroke="black" stroke-width="0.571184"/>
</g>
<g clip-path="url(#clip45_1046_15019)">
<path d="M24.8923 0.378906L28.3218 26.4286" stroke="black" stroke-width="0.571184"/>
</g>
<g clip-path="url(#clip46_1046_15019)">
<path d="M28.6299 0.130859V26.4053" stroke="black" stroke-width="0.571184"/>
</g>
<g clip-path="url(#clip47_1046_15019)">
<path d="M32.3662 0.378906L28.9367 26.4286" stroke="black" stroke-width="0.571184"/>
</g>
<defs>
<clipPath id="clip0_1046_15019">
<rect width="1.71782" height="57.2606" fill="white" transform="translate(35.2126 0.882812) rotate(15)"/>
</clipPath>
<clipPath id="clip1_1046_15019">
<rect width="1.71782" height="57.2606" fill="white" transform="translate(38.7935 1.98242) rotate(22.5)"/>
</clipPath>
<clipPath id="clip2_1046_15019">
<rect width="1.71782" height="57.2606" fill="white" transform="translate(42.2029 3.53711) rotate(30)"/>
</clipPath>
<clipPath id="clip3_1046_15019">
<rect width="1.71782" height="57.2606" fill="white" transform="translate(45.3792 5.52734) rotate(37.5)"/>
</clipPath>
<clipPath id="clip4_1046_15019">
<rect width="1.71782" height="57.2606" fill="white" transform="translate(48.2686 7.91406) rotate(45)"/>
</clipPath>
<clipPath id="clip5_1046_15019">
<rect width="1.71782" height="57.2606" fill="white" transform="translate(50.8228 10.6562) rotate(52.5)"/>
</clipPath>
<clipPath id="clip6_1046_15019">
<rect width="1.71782" height="57.2606" fill="white" transform="translate(52.9976 13.6992) rotate(60)"/>
</clipPath>
<clipPath id="clip7_1046_15019">
<rect width="1.71782" height="57.2606" fill="white" transform="translate(54.7537 17.0059) rotate(67.5)"/>
</clipPath>
<clipPath id="clip8_1046_15019">
<rect width="1.71782" height="57.2606" fill="white" transform="translate(56.0645 20.5234) rotate(75)"/>
</clipPath>
<clipPath id="clip9_1046_15019">
<rect width="1.71782" height="57.2606" fill="white" transform="translate(56.905 24.1758) rotate(82.5)"/>
</clipPath>
<clipPath id="clip10_1046_15019">
<rect width="1.71782" height="57.2606" fill="white" transform="translate(57.2615 27.9082) rotate(90)"/>
</clipPath>
<clipPath id="clip11_1046_15019">
<rect width="1.71782" height="57.2606" fill="white" transform="translate(57.1296 31.6484) rotate(97.5)"/>
</clipPath>
<clipPath id="clip12_1046_15019">
<rect width="1.71782" height="57.2606" fill="white" transform="translate(56.5085 35.3379) rotate(105)"/>
</clipPath>
<clipPath id="clip13_1046_15019">
<rect width="1.71782" height="57.2606" fill="white" transform="translate(55.4109 38.9238) rotate(112.5)"/>
</clipPath>
<clipPath id="clip14_1046_15019">
<rect width="1.71782" height="57.2606" fill="white" transform="translate(53.8555 42.3359) rotate(120)"/>
</clipPath>
<clipPath id="clip15_1046_15019">
<rect width="1.71782" height="57.2606" fill="white" transform="translate(51.8687 45.5098) rotate(127.5)"/>
</clipPath>
<clipPath id="clip16_1046_15019">
<rect width="1.71782" height="57.2606" fill="white" transform="translate(49.4841 48.4043) rotate(135)"/>
</clipPath>
<clipPath id="clip17_1046_15019">
<rect width="1.71782" height="57.2606" fill="white" transform="translate(46.7424 50.9512) rotate(142.5)"/>
</clipPath>
<clipPath id="clip18_1046_15019">
<rect width="1.71782" height="57.2606" fill="white" transform="translate(43.6907 53.127) rotate(150)"/>
</clipPath>
<clipPath id="clip19_1046_15019">
<rect width="1.71782" height="57.2606" fill="white" transform="translate(40.3816 54.8887) rotate(157.5)"/>
</clipPath>
<clipPath id="clip20_1046_15019">
<rect width="1.71782" height="57.2606" fill="white" transform="translate(36.8716 56.1914) rotate(165)"/>
</clipPath>
<clipPath id="clip21_1046_15019">
<rect width="1.71782" height="57.2606" fill="white" transform="translate(33.2214 57.0352) rotate(172.5)"/>
</clipPath>
<clipPath id="clip22_1046_15019">
<rect width="1.71782" height="57.2606" fill="white" transform="translate(29.4895 57.3926) rotate(-180)"/>
</clipPath>
<clipPath id="clip23_1046_15019">
<rect width="1.71782" height="57.2606" fill="white" transform="translate(25.7466 57.2656) rotate(-172.5)"/>
</clipPath>
<clipPath id="clip24_1046_15019">
<rect width="1.71782" height="57.2606" fill="white" transform="translate(22.0518 56.6406) rotate(-165)"/>
</clipPath>
<clipPath id="clip25_1046_15019">
<rect width="1.71782" height="57.2606" fill="white" transform="translate(18.4697 55.541) rotate(-157.5)"/>
</clipPath>
<clipPath id="clip26_1046_15019">
<rect width="1.71782" height="57.2606" fill="white" transform="translate(15.0603 53.9844) rotate(-150)"/>
</clipPath>
<clipPath id="clip27_1046_15019">
<rect width="1.71782" height="57.2606" fill="white" transform="translate(11.8843 52) rotate(-142.5)"/>
</clipPath>
<clipPath id="clip28_1046_15019">
<rect width="1.71782" height="57.2606" fill="white" transform="translate(8.99487 49.6172) rotate(-135)"/>
</clipPath>
<clipPath id="clip29_1046_15019">
<rect width="1.71782" height="57.2606" fill="white" transform="translate(6.44067 46.8711) rotate(-127.5)"/>
</clipPath>
<clipPath id="clip30_1046_15019">
<rect width="1.71782" height="57.2606" fill="white" transform="translate(4.26636 43.8242) rotate(-120)"/>
</clipPath>
<clipPath id="clip31_1046_15019">
<rect width="1.71782" height="57.2606" fill="white" transform="translate(2.50928 40.5117) rotate(-112.5)"/>
</clipPath>
<clipPath id="clip32_1046_15019">
<rect width="1.71782" height="57.2606" fill="white" transform="translate(1.19897 36.998) rotate(-105)"/>
</clipPath>
<clipPath id="clip33_1046_15019">
<rect width="1.71782" height="57.2606" fill="white" transform="translate(0.358154 33.3535) rotate(-97.5)"/>
</clipPath>
<clipPath id="clip34_1046_15019">
<rect width="1.71782" height="57.2606" fill="white" transform="translate(0.0012207 29.6172) rotate(-90)"/>
</clipPath>
<clipPath id="clip35_1046_15019">
<rect width="1.71782" height="57.2606" fill="white" transform="translate(0.134033 25.8809) rotate(-82.5)"/>
</clipPath>
<clipPath id="clip36_1046_15019">
<rect width="1.71782" height="57.2606" fill="white" transform="translate(0.754395 22.1914) rotate(-75)"/>
</clipPath>
<clipPath id="clip37_1046_15019">
<rect width="1.71782" height="57.2606" fill="white" transform="translate(1.85254 18.5938) rotate(-67.5)"/>
</clipPath>
<clipPath id="clip38_1046_15019">
<rect width="1.71782" height="57.2606" fill="white" transform="translate(3.40771 15.1855) rotate(-60)"/>
</clipPath>
<clipPath id="clip39_1046_15019">
<rect width="1.71782" height="57.2606" fill="white" transform="translate(5.39502 12.0098) rotate(-52.5)"/>
</clipPath>
<clipPath id="clip40_1046_15019">
<rect width="1.71782" height="57.2606" fill="white" transform="translate(7.7793 9.12109) rotate(-45)"/>
</clipPath>
<clipPath id="clip41_1046_15019">
<rect width="1.71782" height="57.2606" fill="white" transform="translate(10.5212 6.57422) rotate(-37.5)"/>
</clipPath>
<clipPath id="clip42_1046_15019">
<rect width="1.71782" height="57.2606" fill="white" transform="translate(13.5728 4.39648) rotate(-30)"/>
</clipPath>
<clipPath id="clip43_1046_15019">
<rect width="1.71782" height="57.2606" fill="white" transform="translate(16.8816 2.63477) rotate(-22.5)"/>
</clipPath>
<clipPath id="clip44_1046_15019">
<rect width="1.71782" height="57.2606" fill="white" transform="translate(20.3921 1.32812) rotate(-15)"/>
</clipPath>
<clipPath id="clip45_1046_15019">
<rect width="1.71782" height="57.2606" fill="white" transform="translate(24.043 0.488281) rotate(-7.5)"/>
</clipPath>
<clipPath id="clip46_1046_15019">
<rect width="1.71782" height="57.2606" fill="white" transform="translate(27.7732 0.130859)"/>
</clipPath>
<clipPath id="clip47_1046_15019">
<rect width="1.71782" height="57.2606" fill="white" transform="translate(31.5178 0.269531) rotate(7.50004)"/>
</clipPath>
</defs>
</svg>
