<svg width="57" height="58" viewBox="0 0 57 58" fill="none" xmlns="http://www.w3.org/2000/svg">
<path d="M56.2821 21.7153C56.6178 23.0406 56.8596 24.4025 57 25.794V31.5154C56.8596 32.9069 56.6178 34.2689 56.2821 35.5941V21.7153Z" fill="black"/>
<path d="M54.9899 17.8317C54.7666 17.2947 54.5271 16.7659 54.272 16.246V41.0634C54.5271 40.5435 54.7666 40.0147 54.9899 39.4778V17.8317Z" fill="black"/>
<path d="M52.262 12.7888C52.5097 13.1532 52.749 13.5235 52.9799 13.8994V43.41C52.749 43.786 52.5097 44.1563 52.262 44.5206V12.7888Z" fill="black"/>
<path d="M50.9698 11.0356C50.7361 10.7426 50.4968 10.4542 50.2519 10.1707V47.1388C50.4968 46.8552 50.7361 46.5669 50.9698 46.2739V11.0356Z" fill="black"/>
<path d="M48.67 8.48108C48.7672 8.57697 48.8638 8.67352 48.9597 8.77076V48.5387C48.7246 48.7771 48.4852 49.0114 48.2418 49.2416V8.06778C48.386 8.2041 48.5287 8.34188 48.67 8.48108Z" fill="black"/>
<path d="M46.9496 6.91699C46.7136 6.71912 46.4742 6.52491 46.2317 6.33448V50.9749C46.4028 50.8406 46.5724 50.7044 46.7403 50.5663L46.8213 50.4994L46.8771 50.4531L46.9496 50.3924V6.91699Z" fill="black"/>
<path d="M44.2217 4.89059C44.4635 5.0491 44.7029 5.21115 44.9395 5.37662V51.9328C44.7029 52.0983 44.4635 52.2603 44.2217 52.4188V4.89059Z" fill="black"/>
<path d="M42.9295 4.09141C42.6923 3.95322 42.453 3.81828 42.2116 3.68666V53.6228C42.453 53.4911 42.6923 53.3562 42.9295 53.218V4.09141Z" fill="black"/>
<path d="M40.2015 2.68999C40.4426 2.79807 40.6819 2.90936 40.9194 3.02374V54.2857C40.6819 54.4001 40.4426 54.5114 40.2015 54.6194V2.68999Z" fill="black"/>
<path d="M38.9093 2.14792C38.6716 2.0549 38.4323 1.96489 38.1914 1.87797V55.4315C38.4323 55.3445 38.6716 55.2545 38.9093 55.1615V2.14792Z" fill="black"/>
<path d="M36.1814 1.23443C36.422 1.30187 36.6612 1.37231 36.8992 1.44574V55.8637C36.6612 55.9371 36.422 56.0076 36.1814 56.075V1.23443Z" fill="black"/>
<path d="M34.8892 0.904111C34.8039 0.884379 34.7185 0.865063 34.633 0.846092C34.4795 0.812063 34.3257 0.779246 34.1713 0.747675V56.5618C34.2506 56.5455 34.3297 56.529 34.4088 56.5121C34.5694 56.4778 34.7295 56.4422 34.8892 56.4053V0.904111Z" fill="black"/>
<path d="M32.1612 0.40922C32.4015 0.441068 32.6407 0.475824 32.8791 0.513488V56.7959C32.7361 56.8185 32.5929 56.84 32.4493 56.8605C32.3534 56.8742 32.2574 56.8875 32.1612 56.9002V0.40922Z" fill="black"/>
<path d="M30.869 0.267011C30.6305 0.246102 30.3912 0.228067 30.1511 0.212939V57.0965C30.2289 57.0916 30.3066 57.0864 30.3842 57.0809C30.5461 57.0694 30.7078 57.0565 30.869 57.0424V0.267011Z" fill="black"/>
<path d="M28.2846 0.154297C28.4765 0.154297 28.668 0.156166 28.8589 0.159836V57.1496C28.7932 57.1509 28.7273 57.1519 28.6614 57.1527C28.536 57.1543 28.4104 57.1551 28.2846 57.1551C28.2368 57.1551 28.1889 57.155 28.1411 57.1548V0.154643C28.1889 0.154401 28.2368 0.154297 28.2846 0.154297Z" fill="black"/>
<path d="M26.8489 0.188949C26.6088 0.200546 26.3695 0.215051 26.131 0.232428V57.077C26.3695 57.0944 26.6088 57.1089 26.8489 57.1205V0.188949Z" fill="black"/>
<path d="M24.1209 0.448718C24.2205 0.434491 24.3203 0.420782 24.4203 0.407558C24.4542 0.403058 24.4881 0.398662 24.5221 0.3943C24.5715 0.38793 24.621 0.381699 24.6705 0.375572C24.7266 0.368648 24.7826 0.361898 24.8388 0.35532V56.9541C24.5986 56.9259 24.3593 56.8947 24.1209 56.8607V0.448718Z" fill="black"/>
<path d="M22.8287 0.662897C22.5883 0.708315 22.3491 0.756675 22.1108 0.807944V56.5015C22.3491 56.5527 22.5883 56.6011 22.8287 56.6465V0.662897Z" fill="black"/>
<path d="M20.1008 1.31651C20.3388 1.24714 20.5781 1.1807 20.8186 1.11725V56.1922C20.5781 56.1287 20.3388 56.0623 20.1008 55.9929V1.31651Z" fill="black"/>
<path d="M18.8086 1.72631C18.5678 1.80894 18.3285 1.89462 18.0907 1.98331V55.3261C18.3285 55.4148 18.5678 55.5005 18.8086 55.5831V1.72631Z" fill="black"/>
<path d="M16.4509 2.65285L16.5547 2.60691C16.6358 2.57125 16.7171 2.53598 16.7985 2.50105V54.8084C16.6794 54.7573 16.5608 54.7055 16.4426 54.6529C16.3215 54.599 16.2008 54.5443 16.0806 54.4888V2.8206C16.2036 2.76386 16.327 2.70792 16.4509 2.65285Z" fill="black"/>
<path d="M14.7884 3.45653C14.547 3.58288 14.3078 3.71249 14.0705 3.84531V53.4641C14.3078 53.5969 14.547 53.7265 14.7884 53.8529V3.45653Z" fill="black"/>
<path d="M12.0605 5.08126C12.2973 4.92202 12.5365 4.76614 12.7783 4.61372V52.6957C12.5365 52.5433 12.2973 52.3874 12.0605 52.2282V5.08126Z" fill="black"/>
<path d="M10.7683 6.00278C10.5259 6.18584 10.2866 6.37256 10.0504 6.56296V50.7465C10.2866 50.9369 10.5259 51.1236 10.7683 51.3066V6.00278Z" fill="black"/>
<path d="M8.0403 8.34313C8.27565 8.11431 8.51499 7.88943 8.75819 7.66864V49.6408C8.51499 49.42 8.27565 49.1951 8.0403 48.9663V8.34313Z" fill="black"/>
<path d="M6.74811 9.68313C6.50365 9.95363 6.26424 10.2288 6.03023 10.5084V46.801C6.26424 47.0807 6.50365 47.3558 6.74811 47.6263V9.68313Z" fill="black"/>
<path d="M4.02015 13.2196C4.25178 12.8652 4.49112 12.5162 4.73804 12.1728V45.1366C4.49112 44.7932 4.25178 44.4442 4.02015 44.0898V13.2196Z" fill="black"/>
<path d="M2.72796 15.4038C2.47537 15.8779 2.23589 16.36 2.01008 16.8494V40.46C2.23589 40.9495 2.47537 41.4315 2.72796 41.9057V15.4038Z" fill="black"/>
<path d="M0.717884 37.1132C0.433254 36.2074 0.193072 35.2823 0 34.3404V22.9691C0.193072 22.0271 0.433254 21.102 0.717884 20.1962V37.1132Z" fill="black"/>
</svg>
